<svg width="1440" height="127" viewBox="0 0 1440 127" fill="none" xmlns="http://www.w3.org/2000/svg">
<rect width="1440" height="114" fill="#DBD3BF"/>
<rect y="114" width="1440" height="13" fill="#171E35"/>
<rect x="1178" y="34" width="167" height="58" rx="3" fill="#AF7035"/>
<path d="M724.952 60.616C724.856 60.5093 724.653 60.3707 724.344 60.2C724.035 60.0187 723.661 59.8587 723.224 59.72C722.797 59.5707 722.355 59.496 721.896 59.496C720.691 59.496 720.088 59.9227 720.088 60.776C720.088 61.0853 720.184 61.3307 720.376 61.512C720.568 61.6933 720.856 61.848 721.24 61.976C721.624 62.104 722.104 62.2427 722.68 62.392C723.427 62.584 724.072 62.808 724.616 63.064C725.171 63.32 725.592 63.6613 725.88 64.088C726.179 64.504 726.328 65.0587 726.328 65.752C726.328 66.5627 726.131 67.2187 725.736 67.72C725.352 68.2107 724.84 68.568 724.2 68.792C723.56 69.016 722.867 69.128 722.12 69.128C721.267 69.128 720.419 69 719.576 68.744C718.744 68.4773 718.003 68.1147 717.352 67.656L718.328 65.752C718.424 65.848 718.595 65.976 718.84 66.136C719.085 66.2853 719.384 66.44 719.736 66.6C720.088 66.7493 720.472 66.8773 720.888 66.984C721.304 67.0907 721.725 67.144 722.152 67.144C723.368 67.144 723.976 66.7547 723.976 65.976C723.976 65.6453 723.853 65.3787 723.608 65.176C723.363 64.9733 723.016 64.8027 722.568 64.664C722.131 64.5253 721.619 64.3707 721.032 64.2C720.307 63.9973 719.704 63.7733 719.224 63.528C718.755 63.272 718.403 62.9573 718.168 62.584C717.933 62.2 717.816 61.7147 717.816 61.128C717.816 60.3493 717.997 59.6987 718.36 59.176C718.733 58.6427 719.235 58.2427 719.864 57.976C720.493 57.6987 721.192 57.56 721.96 57.56C722.749 57.56 723.485 57.688 724.168 57.944C724.851 58.2 725.437 58.4933 725.928 58.824L724.952 60.616ZM733.825 68.568C733.537 68.696 733.18 68.824 732.753 68.952C732.337 69.08 731.905 69.144 731.457 69.144C731.062 69.144 730.7 69.0747 730.369 68.936C730.038 68.7973 729.772 68.5787 729.569 68.28C729.377 67.9707 729.281 67.5707 729.281 67.08V62.264H728.177V60.616H729.281V57.896H731.425V60.616H733.185V62.264H731.425V66.36C731.425 66.648 731.5 66.856 731.649 66.984C731.809 67.112 732.001 67.176 732.225 67.176C732.449 67.176 732.668 67.1387 732.881 67.064C733.094 66.9893 733.265 66.9253 733.393 66.872L733.825 68.568ZM736.286 70.632C736.681 70.7387 737.001 70.792 737.246 70.792C737.534 70.792 737.764 70.6693 737.934 70.424C738.116 70.1893 738.318 69.7147 738.542 69L735.23 60.616H737.454L739.71 66.808L741.694 60.616H743.742L740.222 70.664C740.03 71.24 739.684 71.7147 739.182 72.088C738.692 72.472 738.084 72.664 737.358 72.664C737.006 72.664 736.649 72.6053 736.286 72.488V70.632ZM746.091 57.32H748.235V66.312C748.235 66.7067 748.299 66.968 748.427 67.096C748.555 67.224 748.731 67.288 748.955 67.288C749.126 67.288 749.302 67.2667 749.483 67.224C749.665 67.1813 749.825 67.128 749.963 67.064L750.251 68.696C749.963 68.8347 749.627 68.9413 749.243 69.016C748.859 69.0907 748.513 69.128 748.203 69.128C747.531 69.128 747.009 68.952 746.635 68.6C746.273 68.2373 746.091 67.7253 746.091 67.064V57.32ZM756.273 69.16C755.367 69.16 754.583 68.9627 753.921 68.568C753.271 68.1733 752.764 67.6507 752.401 67C752.039 66.3387 751.857 65.624 751.857 64.856C751.857 64.0667 752.033 63.3413 752.385 62.68C752.748 62.008 753.26 61.4747 753.921 61.08C754.583 60.6747 755.372 60.472 756.289 60.472C757.207 60.472 757.991 60.6747 758.641 61.08C759.292 61.4747 759.788 62.0027 760.129 62.664C760.481 63.3147 760.657 64.0187 760.657 64.776C760.657 65.0533 760.641 65.2933 760.609 65.496H754.129C754.183 66.1467 754.423 66.6587 754.849 67.032C755.287 67.4053 755.788 67.592 756.353 67.592C756.78 67.592 757.18 67.4907 757.553 67.288C757.937 67.0747 758.199 66.7973 758.337 66.456L760.177 66.968C759.868 67.608 759.372 68.136 758.689 68.552C758.007 68.9573 757.201 69.16 756.273 69.16ZM754.081 64.136H758.465C758.401 63.5067 758.161 63 757.745 62.616C757.34 62.2213 756.844 62.024 756.257 62.024C755.681 62.024 755.185 62.2213 754.769 62.616C754.364 63 754.135 63.5067 754.081 64.136Z" fill="#171E35"/>
<path d="M172.314 41V29.64H177.338C177.86 29.64 178.34 29.7467 178.778 29.96C179.226 30.1733 179.61 30.4613 179.93 30.824C180.26 31.1867 180.511 31.592 180.682 32.04C180.863 32.488 180.954 32.9467 180.954 33.416C180.954 34.1413 180.767 34.808 180.394 35.416C180.031 36.024 179.535 36.4613 178.906 36.728L181.498 41H179.066L176.73 37.192H174.522V41H172.314ZM174.522 35.256H177.29C177.706 35.256 178.047 35.08 178.314 34.728C178.591 34.3653 178.73 33.928 178.73 33.416C178.73 33.064 178.655 32.7493 178.506 32.472C178.356 32.1947 178.164 31.976 177.93 31.816C177.706 31.656 177.46 31.576 177.194 31.576H174.522V35.256ZM192.042 39.064V41H184.154V29.64H191.898V31.576H186.362V34.312H191.146V36.104H186.362V39.064H192.042ZM198.052 29.64H200.292L204.468 41H202.196L201.14 38.168H197.172L196.132 41H193.86L198.052 29.64ZM200.74 36.616L199.172 31.928L197.54 36.616H200.74ZM206.914 41V29.64H209.122V39.064H214.914V41H206.914ZM231.281 41V33.544L228.369 39.096H227.137L224.225 33.544V41H222.017V29.64H224.385L227.745 36.104L231.137 29.64H233.489V41H231.281ZM244.949 39.064V41H237.061V29.64H244.805V31.576H239.269V34.312H244.053V36.104H239.269V39.064H244.949ZM250.078 33.704V41H247.87V29.64H249.63L255.502 37.128V29.656H257.71V41H255.87L250.078 33.704ZM266.317 41V29.64H271.341C271.863 29.64 272.343 29.7467 272.781 29.96C273.229 30.1733 273.613 30.4613 273.933 30.824C274.263 31.1867 274.514 31.592 274.685 32.04C274.866 32.488 274.957 32.9467 274.957 33.416C274.957 34.1413 274.77 34.808 274.397 35.416C274.034 36.024 273.538 36.4613 272.909 36.728L275.501 41H273.069L270.733 37.192H268.525V41H266.317ZM268.525 35.256H271.293C271.709 35.256 272.05 35.08 272.317 34.728C272.594 34.3653 272.733 33.928 272.733 33.416C272.733 33.064 272.658 32.7493 272.509 32.472C272.359 32.1947 272.167 31.976 271.933 31.816C271.709 31.656 271.463 31.576 271.197 31.576H268.525V35.256ZM286.045 39.064V41H278.157V29.64H285.901V31.576H280.365V34.312H285.149V36.104H280.365V39.064H286.045ZM292.055 29.64H294.295L298.471 41H296.199L295.143 38.168H291.175L290.135 41H287.863L292.055 29.64ZM294.743 36.616L293.175 31.928L291.543 36.616H294.743ZM300.917 41V29.64H303.125V39.064H308.917V41H300.917ZM322.788 32.616C322.692 32.5093 322.489 32.3707 322.18 32.2C321.871 32.0187 321.497 31.8587 321.06 31.72C320.633 31.5707 320.191 31.496 319.732 31.496C318.527 31.496 317.924 31.9227 317.924 32.776C317.924 33.0853 318.02 33.3307 318.212 33.512C318.404 33.6933 318.692 33.848 319.076 33.976C319.46 34.104 319.94 34.2427 320.516 34.392C321.263 34.584 321.908 34.808 322.452 35.064C323.007 35.32 323.428 35.6613 323.716 36.088C324.015 36.504 324.164 37.0587 324.164 37.752C324.164 38.5627 323.967 39.2187 323.572 39.72C323.188 40.2107 322.676 40.568 322.036 40.792C321.396 41.016 320.703 41.128 319.956 41.128C319.103 41.128 318.255 41 317.412 40.744C316.58 40.4773 315.839 40.1147 315.188 39.656L316.164 37.752C316.26 37.848 316.431 37.976 316.676 38.136C316.921 38.2853 317.22 38.44 317.572 38.6C317.924 38.7493 318.308 38.8773 318.724 38.984C319.14 39.0907 319.561 39.144 319.988 39.144C321.204 39.144 321.812 38.7547 321.812 37.976C321.812 37.6453 321.689 37.3787 321.444 37.176C321.199 36.9733 320.852 36.8027 320.404 36.664C319.967 36.5253 319.455 36.3707 318.868 36.2C318.143 35.9973 317.54 35.7733 317.06 35.528C316.591 35.272 316.239 34.9573 316.004 34.584C315.769 34.2 315.652 33.7147 315.652 33.128C315.652 32.3493 315.833 31.6987 316.196 31.176C316.569 30.6427 317.071 30.2427 317.7 29.976C318.329 29.6987 319.028 29.56 319.796 29.56C320.585 29.56 321.321 29.688 322.004 29.944C322.687 30.2 323.273 30.4933 323.764 30.824L322.788 32.616ZM335.528 31.576H331.896V41H329.704V31.576H326.072V29.64H335.528V31.576ZM339.419 29.64L342.219 34.984L345.067 29.64H347.451L343.323 37.032V41H341.131V37L337.019 29.64H339.419ZM349.901 41V29.64H352.109V39.064H357.901V41H349.901ZM368.333 39.064V41H360.445V29.64H368.189V31.576H362.653V34.312H367.437V36.104H362.653V39.064H368.333ZM215.739 83V57.44H225.027C227.811 57.44 230.139 58.016 232.011 59.168C233.883 60.296 235.287 61.832 236.223 63.776C237.159 65.696 237.627 67.832 237.627 70.184C237.627 72.776 237.111 75.032 236.079 76.952C235.047 78.872 233.583 80.36 231.687 81.416C229.791 82.472 227.571 83 225.027 83H215.739ZM232.623 70.184C232.623 68.528 232.323 67.076 231.723 65.828C231.123 64.556 230.259 63.572 229.131 62.876C228.003 62.156 226.635 61.796 225.027 61.796H220.707V78.644H225.027C226.659 78.644 228.039 78.284 229.167 77.564C230.295 76.82 231.147 75.812 231.723 74.54C232.323 73.244 232.623 71.792 232.623 70.184ZM261.957 78.644V83H244.209V57.44H261.633V61.796H249.177V67.952H259.941V71.984H249.177V78.644H261.957ZM289.374 83V66.224L282.822 78.716H280.05L273.498 66.224V83H268.53V57.44H273.858L281.418 71.984L289.05 57.44H294.342V83H289.374ZM313.286 83.18C311.414 83.18 309.71 82.82 308.174 82.1C306.662 81.38 305.354 80.408 304.25 79.184C303.17 77.936 302.33 76.544 301.73 75.008C301.13 73.448 300.83 71.852 300.83 70.22C300.83 68.516 301.142 66.896 301.766 65.36C302.39 63.8 303.266 62.42 304.394 61.22C305.522 59.996 306.842 59.036 308.354 58.34C309.89 57.62 311.57 57.26 313.394 57.26C315.242 57.26 316.922 57.632 318.434 58.376C319.97 59.12 321.278 60.116 322.358 61.364C323.462 62.612 324.302 64.016 324.878 65.576C325.478 67.112 325.778 68.684 325.778 70.292C325.778 71.972 325.466 73.592 324.842 75.152C324.218 76.688 323.342 78.068 322.214 79.292C321.11 80.492 319.79 81.44 318.254 82.136C316.742 82.832 315.086 83.18 313.286 83.18ZM305.87 70.22C305.87 71.708 306.158 73.1 306.734 74.396C307.334 75.692 308.186 76.748 309.29 77.564C310.418 78.38 311.762 78.788 313.322 78.788C314.93 78.788 316.286 78.368 317.39 77.528C318.494 76.688 319.334 75.608 319.91 74.288C320.486 72.968 320.774 71.612 320.774 70.22C320.774 68.732 320.474 67.34 319.874 66.044C319.274 64.748 318.41 63.704 317.282 62.912C316.178 62.096 314.858 61.688 313.322 61.688C311.714 61.688 310.358 62.108 309.254 62.948C308.15 63.788 307.31 64.868 306.734 66.188C306.158 67.484 305.87 68.828 305.87 70.22Z" fill="#171E35"/>
<path d="M813.904 69.08C813.157 69.08 812.459 68.9307 811.808 68.632C811.157 68.3333 810.581 67.9227 810.08 67.4C809.589 66.8667 809.205 66.248 808.928 65.544C808.651 64.84 808.512 64.0773 808.512 63.256C808.512 62.4773 808.651 61.7467 808.928 61.064C809.205 60.3707 809.595 59.7627 810.096 59.24C810.597 58.7173 811.184 58.3067 811.856 58.008C812.528 57.7093 813.259 57.56 814.048 57.56C815.104 57.56 816.016 57.7893 816.784 58.248C817.552 58.696 818.128 59.2933 818.512 60.04L816.864 61.256C816.576 60.7013 816.171 60.2747 815.648 59.976C815.136 59.6667 814.576 59.512 813.968 59.512C813.328 59.512 812.763 59.688 812.272 60.04C811.792 60.392 811.413 60.856 811.136 61.432C810.869 62.008 810.736 62.6373 810.736 63.32C810.736 64.0347 810.88 64.68 811.168 65.256C811.456 65.832 811.851 66.2907 812.352 66.632C812.864 66.9627 813.445 67.128 814.096 67.128C815.195 67.128 816.187 66.6107 817.072 65.576V64.776H814.784V63.16H818.896V69H817.072V67.72C816.155 68.6267 815.099 69.08 813.904 69.08ZM826.762 62.472C826.111 62.472 825.53 62.6 825.018 62.856C824.506 63.1013 824.138 63.4587 823.914 63.928V69H821.77V60.616H823.738V62.408C824.026 61.832 824.399 61.3787 824.858 61.048C825.327 60.7173 825.818 60.536 826.33 60.504C826.554 60.504 826.698 60.5093 826.762 60.52V62.472ZM832.92 69.16C832.003 69.16 831.213 68.9627 830.552 68.568C829.901 68.1627 829.4 67.6293 829.048 66.968C828.696 66.3067 828.52 65.592 828.52 64.824C828.52 64.0453 828.696 63.3253 829.048 62.664C829.411 62.0027 829.917 61.4747 830.568 61.08C831.229 60.6747 832.013 60.472 832.92 60.472C833.827 60.472 834.605 60.6747 835.256 61.08C835.917 61.4747 836.424 62.0027 836.776 62.664C837.128 63.3253 837.304 64.0453 837.304 64.824C837.304 65.592 837.128 66.3067 836.776 66.968C836.424 67.6293 835.917 68.1627 835.256 68.568C834.605 68.9627 833.827 69.16 832.92 69.16ZM830.728 64.824C830.728 65.3147 830.824 65.752 831.016 66.136C831.208 66.5093 831.469 66.8027 831.8 67.016C832.131 67.2293 832.504 67.336 832.92 67.336C833.325 67.336 833.693 67.2293 834.024 67.016C834.355 66.792 834.616 66.4933 834.808 66.12C835.011 65.736 835.112 65.2987 835.112 64.808C835.112 64.328 835.011 63.9013 834.808 63.528C834.616 63.144 834.355 62.8453 834.024 62.632C833.693 62.408 833.325 62.296 832.92 62.296C832.504 62.296 832.131 62.408 831.8 62.632C831.469 62.8453 831.208 63.144 831.016 63.528C830.824 63.9013 830.728 64.3333 830.728 64.824ZM843.823 69.16C842.906 69.16 842.116 68.9627 841.455 68.568C840.804 68.1627 840.303 67.6293 839.951 66.968C839.599 66.3067 839.423 65.592 839.423 64.824C839.423 64.0453 839.599 63.3253 839.951 62.664C840.314 62.0027 840.82 61.4747 841.471 61.08C842.132 60.6747 842.916 60.472 843.823 60.472C844.73 60.472 845.508 60.6747 846.159 61.08C846.82 61.4747 847.327 62.0027 847.679 62.664C848.031 63.3253 848.207 64.0453 848.207 64.824C848.207 65.592 848.031 66.3067 847.679 66.968C847.327 67.6293 846.82 68.1627 846.159 68.568C845.508 68.9627 844.73 69.16 843.823 69.16ZM841.631 64.824C841.631 65.3147 841.727 65.752 841.919 66.136C842.111 66.5093 842.372 66.8027 842.703 67.016C843.034 67.2293 843.407 67.336 843.823 67.336C844.228 67.336 844.596 67.2293 844.927 67.016C845.258 66.792 845.519 66.4933 845.711 66.12C845.914 65.736 846.015 65.2987 846.015 64.808C846.015 64.328 845.914 63.9013 845.711 63.528C845.519 63.144 845.258 62.8453 844.927 62.632C844.596 62.408 844.228 62.296 843.823 62.296C843.407 62.296 843.034 62.408 842.703 62.632C842.372 62.8453 842.111 63.144 841.919 63.528C841.727 63.9013 841.631 64.3333 841.631 64.824ZM863.878 69H861.734V64.296C861.734 63.6347 861.617 63.1493 861.382 62.84C861.158 62.52 860.843 62.36 860.438 62.36C860.011 62.36 859.611 62.5253 859.238 62.856C858.865 63.176 858.598 63.5973 858.438 64.12V69H856.294V64.296C856.294 63.624 856.177 63.1333 855.942 62.824C855.718 62.5147 855.403 62.36 854.998 62.36C854.582 62.36 854.182 62.52 853.798 62.84C853.425 63.16 853.158 63.5813 852.998 64.104V69H850.854V60.616H852.79V62.168C853.099 61.624 853.521 61.208 854.054 60.92C854.598 60.6213 855.217 60.472 855.91 60.472C856.603 60.472 857.142 60.6427 857.526 60.984C857.921 61.3253 858.171 61.7467 858.278 62.248C858.609 61.672 859.041 61.2347 859.574 60.936C860.107 60.6267 860.705 60.472 861.366 60.472C861.889 60.472 862.31 60.568 862.63 60.76C862.961 60.9413 863.217 61.192 863.398 61.512C863.579 61.8213 863.702 62.1733 863.766 62.568C863.841 62.9627 863.878 63.3627 863.878 63.768V69ZM866.945 59.448V57.32H869.089V59.448H866.945ZM866.945 69V60.616H869.089V69H866.945ZM880.015 69H877.871V64.296C877.871 63.624 877.754 63.1333 877.519 62.824C877.284 62.5147 876.959 62.36 876.543 62.36C876.255 62.36 875.962 62.4347 875.663 62.584C875.375 62.7333 875.114 62.9413 874.879 63.208C874.644 63.464 874.474 63.7627 874.367 64.104V69H872.223V60.616H874.159V62.168C874.468 61.6453 874.916 61.2347 875.503 60.936C876.09 60.6267 876.751 60.472 877.487 60.472C878.01 60.472 878.436 60.568 878.767 60.76C879.098 60.9413 879.354 61.192 879.535 61.512C879.716 61.8213 879.839 62.1733 879.903 62.568C879.978 62.9627 880.015 63.3627 880.015 63.768V69ZM886.359 69.048C885.612 69.048 884.956 68.856 884.391 68.472C883.826 68.088 883.383 67.576 883.063 66.936C882.743 66.2853 882.583 65.576 882.583 64.808C882.583 63.9973 882.748 63.2667 883.079 62.616C883.41 61.9547 883.868 61.432 884.455 61.048C885.042 60.664 885.719 60.472 886.487 60.472C887.138 60.472 887.708 60.6213 888.199 60.92C888.69 61.208 889.095 61.5973 889.415 62.088V60.616H891.287V68.6C891.287 69.432 891.084 70.1413 890.679 70.728C890.284 71.3253 889.735 71.7787 889.031 72.088C888.327 72.408 887.527 72.568 886.631 72.568C885.714 72.568 884.94 72.4133 884.311 72.104C883.692 71.8053 883.159 71.3787 882.711 70.824L883.879 69.688C884.199 70.0827 884.599 70.392 885.079 70.616C885.57 70.84 886.087 70.952 886.631 70.952C887.079 70.952 887.49 70.8667 887.863 70.696C888.247 70.536 888.556 70.28 888.791 69.928C889.026 69.5867 889.143 69.144 889.143 68.6V67.544C888.866 68.024 888.471 68.3973 887.959 68.664C887.458 68.92 886.924 69.048 886.359 69.048ZM887.079 67.336C887.548 67.336 887.97 67.1973 888.343 66.92C888.727 66.6427 888.994 66.312 889.143 65.928V63.928C888.951 63.4373 888.647 63.0427 888.231 62.744C887.826 62.4453 887.399 62.296 886.951 62.296C886.514 62.296 886.13 62.4187 885.799 62.664C885.479 62.9093 885.228 63.2293 885.047 63.624C884.866 64.008 884.775 64.424 884.775 64.872C884.775 65.3307 884.876 65.7467 885.079 66.12C885.282 66.4933 885.554 66.792 885.895 67.016C886.247 67.2293 886.642 67.336 887.079 67.336Z" fill="#171E35"/>
<path d="M940.496 63.24C940.496 62.5467 940.619 61.864 940.864 61.192C941.12 60.52 941.488 59.912 941.968 59.368C942.448 58.824 943.035 58.392 943.728 58.072C944.421 57.7413 945.211 57.576 946.096 57.576C947.131 57.576 948.032 57.8053 948.8 58.264C949.568 58.7227 950.139 59.32 950.512 60.056L948.816 61.224C948.624 60.7973 948.373 60.4613 948.064 60.216C947.755 59.9707 947.419 59.7947 947.056 59.688C946.704 59.5813 946.363 59.528 946.032 59.528C945.477 59.528 944.992 59.64 944.576 59.864C944.171 60.088 943.829 60.3813 943.552 60.744C943.275 61.1067 943.067 61.512 942.928 61.96C942.8 62.408 942.736 62.856 942.736 63.304C942.736 63.976 942.875 64.6053 943.152 65.192C943.429 65.768 943.819 66.2373 944.32 66.6C944.821 66.9627 945.403 67.144 946.064 67.144C946.405 67.144 946.757 67.0853 947.12 66.968C947.493 66.8507 947.835 66.664 948.144 66.408C948.453 66.152 948.693 65.8213 948.864 65.416L950.672 66.456C950.437 67.0213 950.069 67.5013 949.568 67.896C949.067 68.28 948.501 68.5787 947.872 68.792C947.243 68.9947 946.619 69.096 946 69.096C945.189 69.096 944.448 68.9307 943.776 68.6C943.115 68.2587 942.539 67.8107 942.048 67.256C941.557 66.6907 941.173 66.0613 940.896 65.368C940.629 64.664 940.496 63.9547 940.496 63.24ZM953.065 65.864V60.616H955.209V65.4C955.209 66.6907 955.673 67.336 956.601 67.336C957.017 67.336 957.417 67.2133 957.801 66.968C958.195 66.712 958.515 66.328 958.761 65.816V60.616H960.905V66.6C960.905 66.8347 960.942 67 961.017 67.096C961.091 67.1813 961.225 67.2347 961.417 67.256V69C961.203 69.0427 961.022 69.0693 960.873 69.08C960.734 69.0907 960.606 69.096 960.489 69.096C960.105 69.096 959.79 69.0107 959.545 68.84C959.31 68.6587 959.171 68.4133 959.129 68.104L959.081 67.432C958.707 68.008 958.227 68.44 957.641 68.728C957.054 69.016 956.409 69.16 955.705 69.16C954.841 69.16 954.185 68.8827 953.737 68.328C953.289 67.7627 953.065 66.9413 953.065 65.864ZM964.219 57.32H966.363V66.312C966.363 66.7067 966.427 66.968 966.555 67.096C966.683 67.224 966.859 67.288 967.083 67.288C967.254 67.288 967.43 67.2667 967.611 67.224C967.793 67.1813 967.953 67.128 968.091 67.064L968.379 68.696C968.091 68.8347 967.755 68.9413 967.371 69.016C966.987 69.0907 966.641 69.128 966.331 69.128C965.659 69.128 965.137 68.952 964.763 68.6C964.401 68.2373 964.219 67.7253 964.219 67.064V57.32ZM975.444 68.568C975.156 68.696 974.798 68.824 974.372 68.952C973.956 69.08 973.524 69.144 973.076 69.144C972.681 69.144 972.318 69.0747 971.988 68.936C971.657 68.7973 971.39 68.5787 971.188 68.28C970.996 67.9707 970.9 67.5707 970.9 67.08V62.264H969.796V60.616H970.9V57.896H973.044V60.616H974.804V62.264H973.044V66.36C973.044 66.648 973.118 66.856 973.268 66.984C973.428 67.112 973.62 67.176 973.844 67.176C974.068 67.176 974.286 67.1387 974.5 67.064C974.713 66.9893 974.884 66.9253 975.012 66.872L975.444 68.568ZM977.68 65.864V60.616H979.824V65.4C979.824 66.6907 980.288 67.336 981.216 67.336C981.632 67.336 982.032 67.2133 982.416 66.968C982.811 66.712 983.131 66.328 983.376 65.816V60.616H985.52V66.6C985.52 66.8347 985.558 67 985.632 67.096C985.707 67.1813 985.84 67.2347 986.032 67.256V69C985.819 69.0427 985.638 69.0693 985.488 69.08C985.35 69.0907 985.222 69.096 985.104 69.096C984.72 69.096 984.406 69.0107 984.16 68.84C983.926 68.6587 983.787 68.4133 983.744 68.104L983.696 67.432C983.323 68.008 982.843 68.44 982.256 68.728C981.67 69.016 981.024 69.16 980.32 69.16C979.456 69.16 978.8 68.8827 978.352 68.328C977.904 67.7627 977.68 66.9413 977.68 65.864ZM993.843 62.472C993.192 62.472 992.611 62.6 992.099 62.856C991.587 63.1013 991.219 63.4587 990.995 63.928V69H988.851V60.616H990.819V62.408C991.107 61.832 991.48 61.3787 991.939 61.048C992.408 60.7173 992.899 60.536 993.411 60.504C993.635 60.504 993.779 60.5093 993.843 60.52V62.472ZM1000.02 69.16C999.11 69.16 998.326 68.9627 997.665 68.568C997.014 68.1733 996.508 67.6507 996.145 67C995.782 66.3387 995.601 65.624 995.601 64.856C995.601 64.0667 995.777 63.3413 996.129 62.68C996.492 62.008 997.004 61.4747 997.665 61.08C998.326 60.6747 999.116 60.472 1000.03 60.472C1000.95 60.472 1001.73 60.6747 1002.39 61.08C1003.04 61.4747 1003.53 62.0027 1003.87 62.664C1004.23 63.3147 1004.4 64.0187 1004.4 64.776C1004.4 65.0533 1004.39 65.2933 1004.35 65.496H997.873C997.926 66.1467 998.166 66.6587 998.593 67.032C999.03 67.4053 999.532 67.592 1000.1 67.592C1000.52 67.592 1000.92 67.4907 1001.3 67.288C1001.68 67.0747 1001.94 66.7973 1002.08 66.456L1003.92 66.968C1003.61 67.608 1003.12 68.136 1002.43 68.552C1001.75 68.9573 1000.95 69.16 1000.02 69.16ZM997.825 64.136H1002.21C1002.15 63.5067 1001.91 63 1001.49 62.616C1001.08 62.2213 1000.59 62.024 1000 62.024C999.425 62.024 998.929 62.2213 998.513 62.616C998.108 63 997.878 63.5067 997.825 64.136Z" fill="#171E35"/>
<path d="M1057.07 57.672H1059.12L1060.42 61.432L1061.73 57.672H1063.76L1061.81 62.84L1063.25 66.456L1066.46 57.64H1068.86L1064.32 69H1062.42L1060.42 64.232L1058.43 69H1056.53L1052 57.64H1054.37L1057.6 66.456L1059.01 62.84L1057.07 57.672ZM1073.78 69.16C1072.88 69.16 1072.09 68.9627 1071.43 68.568C1070.78 68.1733 1070.27 67.6507 1069.91 67C1069.55 66.3387 1069.37 65.624 1069.37 64.856C1069.37 64.0667 1069.54 63.3413 1069.89 62.68C1070.26 62.008 1070.77 61.4747 1071.43 61.08C1072.09 60.6747 1072.88 60.472 1073.8 60.472C1074.72 60.472 1075.5 60.6747 1076.15 61.08C1076.8 61.4747 1077.3 62.0027 1077.64 62.664C1077.99 63.3147 1078.17 64.0187 1078.17 64.776C1078.17 65.0533 1078.15 65.2933 1078.12 65.496H1071.64C1071.69 66.1467 1071.93 66.6587 1072.36 67.032C1072.8 67.4053 1073.3 67.592 1073.86 67.592C1074.29 67.592 1074.69 67.4907 1075.06 67.288C1075.45 67.0747 1075.71 66.7973 1075.85 66.456L1077.69 66.968C1077.38 67.608 1076.88 68.136 1076.2 68.552C1075.52 68.9573 1074.71 69.16 1073.78 69.16ZM1071.59 64.136H1075.97C1075.91 63.5067 1075.67 63 1075.25 62.616C1074.85 62.2213 1074.35 62.024 1073.77 62.024C1073.19 62.024 1072.69 62.2213 1072.28 62.616C1071.87 63 1071.64 63.5067 1071.59 64.136ZM1080.66 57.32H1082.8V66.312C1082.8 66.7067 1082.86 66.968 1082.99 67.096C1083.12 67.224 1083.3 67.288 1083.52 67.288C1083.69 67.288 1083.87 67.2667 1084.05 67.224C1084.23 67.1813 1084.39 67.128 1084.53 67.064L1084.82 68.696C1084.53 68.8347 1084.19 68.9413 1083.81 69.016C1083.42 69.0907 1083.08 69.128 1082.77 69.128C1082.1 69.128 1081.57 68.952 1081.2 68.6C1080.84 68.2373 1080.66 67.7253 1080.66 67.064V57.32ZM1086.93 57.32H1089.08V66.312C1089.08 66.7067 1089.14 66.968 1089.27 67.096C1089.4 67.224 1089.57 67.288 1089.8 67.288C1089.97 67.288 1090.15 67.2667 1090.33 67.224C1090.51 67.1813 1090.67 67.128 1090.81 67.064L1091.09 68.696C1090.81 68.8347 1090.47 68.9413 1090.09 69.016C1089.7 69.0907 1089.36 69.128 1089.05 69.128C1088.37 69.128 1087.85 68.952 1087.48 68.6C1087.12 68.2373 1086.93 67.7253 1086.93 67.064V57.32ZM1101.02 69H1098.88V64.296C1098.88 63.624 1098.76 63.1333 1098.53 62.824C1098.29 62.5147 1097.97 62.36 1097.55 62.36C1097.26 62.36 1096.97 62.4347 1096.67 62.584C1096.38 62.7333 1096.12 62.9413 1095.89 63.208C1095.65 63.464 1095.48 63.7627 1095.37 64.104V69H1093.23V60.616H1095.17V62.168C1095.47 61.6453 1095.92 61.2347 1096.51 60.936C1097.1 60.6267 1097.76 60.472 1098.49 60.472C1099.02 60.472 1099.44 60.568 1099.77 60.76C1100.1 60.9413 1100.36 61.192 1100.54 61.512C1100.72 61.8213 1100.85 62.1733 1100.91 62.568C1100.98 62.9627 1101.02 63.3627 1101.02 63.768V69ZM1107.97 69.16C1107.07 69.16 1106.28 68.9627 1105.62 68.568C1104.97 68.1733 1104.46 67.6507 1104.1 67C1103.74 66.3387 1103.56 65.624 1103.56 64.856C1103.56 64.0667 1103.73 63.3413 1104.09 62.68C1104.45 62.008 1104.96 61.4747 1105.62 61.08C1106.28 60.6747 1107.07 60.472 1107.99 60.472C1108.91 60.472 1109.69 60.6747 1110.34 61.08C1110.99 61.4747 1111.49 62.0027 1111.83 62.664C1112.18 63.3147 1112.36 64.0187 1112.36 64.776C1112.36 65.0533 1112.34 65.2933 1112.31 65.496H1105.83C1105.88 66.1467 1106.12 66.6587 1106.55 67.032C1106.99 67.4053 1107.49 67.592 1108.05 67.592C1108.48 67.592 1108.88 67.4907 1109.25 67.288C1109.64 67.0747 1109.9 66.7973 1110.04 66.456L1111.88 66.968C1111.57 67.608 1111.07 68.136 1110.39 68.552C1109.71 68.9573 1108.9 69.16 1107.97 69.16ZM1105.78 64.136H1110.17C1110.1 63.5067 1109.86 63 1109.45 62.616C1109.04 62.2213 1108.54 62.024 1107.96 62.024C1107.38 62.024 1106.89 62.2213 1106.47 62.616C1106.06 63 1105.83 63.5067 1105.78 64.136ZM1117.95 69.16C1117.24 69.16 1116.55 69.0427 1115.9 68.808C1115.25 68.5733 1114.69 68.2267 1114.22 67.768L1114.99 66.376C1115.49 66.7813 1115.98 67.08 1116.46 67.272C1116.94 67.464 1117.41 67.56 1117.87 67.56C1118.29 67.56 1118.62 67.4853 1118.86 67.336C1119.12 67.1867 1119.25 66.9627 1119.25 66.664C1119.25 66.3547 1119.09 66.1467 1118.78 66.04C1118.47 65.9227 1118.04 65.7787 1117.49 65.608C1116.87 65.416 1116.35 65.2187 1115.94 65.016C1115.52 64.8133 1115.2 64.568 1114.99 64.28C1114.79 63.992 1114.69 63.6187 1114.69 63.16C1114.69 62.3387 1115 61.6827 1115.62 61.192C1116.23 60.7013 1117.06 60.456 1118.08 60.456C1118.68 60.456 1119.24 60.552 1119.78 60.744C1120.31 60.9253 1120.79 61.224 1121.23 61.64L1120.37 63C1119.55 62.36 1118.75 62.04 1117.98 62.04C1117.64 62.04 1117.34 62.104 1117.07 62.232C1116.82 62.36 1116.69 62.584 1116.69 62.904C1116.69 63.2027 1116.81 63.416 1117.06 63.544C1117.31 63.672 1117.7 63.8107 1118.21 63.96C1118.87 64.1627 1119.43 64.36 1119.89 64.552C1120.36 64.744 1120.71 64.9893 1120.94 65.288C1121.19 65.5867 1121.31 65.992 1121.31 66.504C1121.31 67.336 1121.01 67.9867 1120.4 68.456C1119.79 68.9253 1118.98 69.16 1117.95 69.16ZM1127.06 69.16C1126.34 69.16 1125.66 69.0427 1125.01 68.808C1124.36 68.5733 1123.8 68.2267 1123.33 67.768L1124.1 66.376C1124.6 66.7813 1125.09 67.08 1125.57 67.272C1126.05 67.464 1126.52 67.56 1126.98 67.56C1127.39 67.56 1127.72 67.4853 1127.97 67.336C1128.23 67.1867 1128.35 66.9627 1128.35 66.664C1128.35 66.3547 1128.2 66.1467 1127.89 66.04C1127.58 65.9227 1127.15 65.7787 1126.59 65.608C1125.98 65.416 1125.46 65.2187 1125.04 65.016C1124.63 64.8133 1124.31 64.568 1124.1 64.28C1123.9 63.992 1123.79 63.6187 1123.79 63.16C1123.79 62.3387 1124.1 61.6827 1124.72 61.192C1125.34 60.7013 1126.16 60.456 1127.19 60.456C1127.78 60.456 1128.35 60.552 1128.88 60.744C1129.42 60.9253 1129.9 61.224 1130.34 61.64L1129.47 63C1128.65 62.36 1127.86 62.04 1127.09 62.04C1126.75 62.04 1126.44 62.104 1126.18 62.232C1125.92 62.36 1125.79 62.584 1125.79 62.904C1125.79 63.2027 1125.92 63.416 1126.16 63.544C1126.42 63.672 1126.8 63.8107 1127.31 63.96C1127.98 64.1627 1128.54 64.36 1128.99 64.552C1129.46 64.744 1129.82 64.9893 1130.05 65.288C1130.3 65.5867 1130.42 65.992 1130.42 66.504C1130.42 67.336 1130.11 67.9867 1129.51 68.456C1128.9 68.9253 1128.08 69.16 1127.06 69.16Z" fill="#171E35"/>
<path d="M1208.39 61.704V69H1206.18V57.64H1207.94L1213.82 65.128V57.656H1216.02V69H1214.18L1208.39 61.704ZM1227.48 67.064V69H1219.59V57.64H1227.33V59.576H1221.8V62.312H1226.58V64.104H1221.8V67.064H1227.48ZM1234.28 57.672H1236.33L1237.63 61.432L1238.94 57.672H1240.97L1239.02 62.84L1240.46 66.456L1243.68 57.64H1246.08L1241.53 69H1239.63L1237.63 64.232L1235.64 69H1233.74L1229.21 57.64H1231.58L1234.81 66.456L1236.22 62.84L1234.28 57.672ZM1254.9 60.616C1254.8 60.5093 1254.6 60.3707 1254.29 60.2C1253.98 60.0187 1253.61 59.8587 1253.17 59.72C1252.74 59.5707 1252.3 59.496 1251.84 59.496C1250.63 59.496 1250.03 59.9227 1250.03 60.776C1250.03 61.0853 1250.13 61.3307 1250.32 61.512C1250.51 61.6933 1250.8 61.848 1251.18 61.976C1251.57 62.104 1252.05 62.2427 1252.62 62.392C1253.37 62.584 1254.02 62.808 1254.56 63.064C1255.11 63.32 1255.54 63.6613 1255.82 64.088C1256.12 64.504 1256.27 65.0587 1256.27 65.752C1256.27 66.5627 1256.07 67.2187 1255.68 67.72C1255.3 68.2107 1254.78 68.568 1254.14 68.792C1253.5 69.016 1252.81 69.128 1252.06 69.128C1251.21 69.128 1250.36 69 1249.52 68.744C1248.69 68.4773 1247.95 68.1147 1247.3 67.656L1248.27 65.752C1248.37 65.848 1248.54 65.976 1248.78 66.136C1249.03 66.2853 1249.33 66.44 1249.68 66.6C1250.03 66.7493 1250.42 66.8773 1250.83 66.984C1251.25 67.0907 1251.67 67.144 1252.1 67.144C1253.31 67.144 1253.92 66.7547 1253.92 65.976C1253.92 65.6453 1253.8 65.3787 1253.55 65.176C1253.31 64.9733 1252.96 64.8027 1252.51 64.664C1252.07 64.5253 1251.56 64.3707 1250.98 64.2C1250.25 63.9973 1249.65 63.7733 1249.17 63.528C1248.7 63.272 1248.35 62.9573 1248.11 62.584C1247.88 62.2 1247.76 61.7147 1247.76 61.128C1247.76 60.3493 1247.94 59.6987 1248.3 59.176C1248.68 58.6427 1249.18 58.2427 1249.81 57.976C1250.44 57.6987 1251.14 57.56 1251.9 57.56C1252.69 57.56 1253.43 57.688 1254.11 57.944C1254.79 58.2 1255.38 58.4933 1255.87 58.824L1254.9 60.616ZM1259.14 69V57.64H1261.35V67.064H1267.14V69H1259.14ZM1277.57 67.064V69H1269.68V57.64H1277.43V59.576H1271.89V62.312H1276.68V64.104H1271.89V67.064H1277.57ZM1288.99 59.576H1285.36V69H1283.17V59.576H1279.53V57.64H1288.99V59.576ZM1300.1 59.576H1296.46V69H1294.27V59.576H1290.64V57.64H1300.1V59.576ZM1310.59 67.064V69H1302.71V57.64H1310.45V59.576H1304.91V62.312H1309.7V64.104H1304.91V67.064H1310.59ZM1313.52 69V57.64H1318.54C1319.06 57.64 1319.54 57.7467 1319.98 57.96C1320.43 58.1733 1320.81 58.4613 1321.13 58.824C1321.46 59.1867 1321.71 59.592 1321.88 60.04C1322.06 60.488 1322.16 60.9467 1322.16 61.416C1322.16 62.1413 1321.97 62.808 1321.6 63.416C1321.23 64.024 1320.74 64.4613 1320.11 64.728L1322.7 69H1320.27L1317.93 65.192H1315.72V69H1313.52ZM1315.72 63.256H1318.49C1318.91 63.256 1319.25 63.08 1319.52 62.728C1319.79 62.3653 1319.93 61.928 1319.93 61.416C1319.93 61.064 1319.86 60.7493 1319.71 60.472C1319.56 60.1947 1319.37 59.976 1319.13 59.816C1318.91 59.656 1318.66 59.576 1318.4 59.576H1315.72V63.256Z" fill="white"/>
</svg>
